<svg width="64" height="64" viewBox="0 0 64 64" fill="none" xmlns="http://www.w3.org/2000/svg">
<path fill-rule="evenodd" clip-rule="evenodd" d="M36.584 16C36.8516 15.3875 37 14.7111 37 14C37 11.2386 34.7614 9 32 9C29.2386 9 27 11.2386 27 14C27 14.7111 27.1484 15.3875 27.416 16H16V27.416C15.3875 27.1484 14.7111 27 14 27C11.2386 27 9 29.2386 9 32C9 34.7614 11.2386 37 14 37C14.7111 37 15.3875 36.8516 16 36.584V48H27.416C27.1484 47.3875 27 46.7111 27 46C27 43.2386 29.2386 41 32 41C34.7614 41 37 43.2386 37 46C37 46.7111 36.8516 47.3875 36.584 48H48V36.584C47.3875 36.8516 46.7111 37 46 37C43.2386 37 41 34.7614 41 32C41 29.2386 43.2386 27 46 27C46.7111 27 47.3875 27.1484 48 27.416V16H36.584Z" fill="#757575"/>
</svg>
