<svg width="64" height="64" viewBox="0 0 64 64" fill="none" xmlns="http://www.w3.org/2000/svg">
<path fill-rule="evenodd" clip-rule="evenodd" d="M16 23C16 15.8203 21.8203 10 29 10H35C42.1797 10 48 15.8203 48 23V24H46V43H48.5V48C48.5 50.2091 46.7091 52 44.5 52H38V51C38 50.4477 37.5523 50 37 50H27C26.4477 50 26 50.4477 26 51V57C26 57.5523 26.4477 58 27 58H37C37.5523 58 38 57.5523 38 57V56H44.5C48.9183 56 52.5 52.4183 52.5 48V42.7092C53.9659 42.1159 55 40.6787 55 39V28C55 26.1362 53.7252 24.5701 52 24.126V23C52 13.6112 44.3888 6 35 6H29C19.6112 6 12 13.6112 12 23V24.126C10.2748 24.5701 9 26.1362 9 28V39C9 41.2091 10.7909 43 13 43H18V24H16V23Z" fill="#448AB9"/>
</svg>
